SplineFontDB: 3.0
FontName: aghtex_mathcal_light
FullName: aghtex_mathcal_light
FamilyName: aghtex_mathcal
Weight: Light
Copyright: Copyright (C) 2012 KM, 1997, 2009 American Mathematical Society (<http://www.ams.org>), with Reserved Font Name CMSY5.
Version: 3.2.0.1
ItalicAngle: -14.04
UnderlinePosition: -100
UnderlineWidth: 50
Ascent: 819
Descent: 205
InvalidEm: 0
LayerCount: 2
Layer: 0 1 "+gMyXYgAA" 1
Layer: 1 1 "+Uk2XYgAA" 0
UniqueID: 5096646
FSType: 8
OS2Version: 1
OS2_WeightWidthSlopeOnly: 0
OS2_UseTypoMetrics: 0
CreationTime: 1344259763
ModificationTime: 1527701950
PfmFamily: 17
TTFWeight: 300
TTFWidth: 5
LineGap: 92
VLineGap: 0
OS2TypoAscent: 0
OS2TypoAOffset: 1
OS2TypoDescent: 0
OS2TypoDOffset: 1
OS2TypoLinegap: 92
OS2WinAscent: 0
OS2WinAOffset: 1
OS2WinDescent: 0
OS2WinDOffset: 1
HheadAscent: 0
HheadAOffset: 1
HheadDescent: 0
HheadDOffset: 1
OS2Vendor: 'PfEd'
MarkAttachClasses: 1
DEI: 91125
ShortTable: maxp 16
  0
  0
  0
  0
  0
  0
  0
  2
  1
  2
  22
  0
  256
  0
  0
  0
EndShort
TtTable: prep
PUSHW_1
 511
SCANCTRL
PUSHB_1
 1
SCANTYPE
SVTCA[y-axis]
MPPEM
PUSHB_1
 8
LT
IF
PUSHB_2
 1
 1
INSTCTRL
EIF
PUSHB_2
 70
 6
CALL
IF
POP
PUSHB_1
 16
EIF
MPPEM
PUSHB_1
 20
GT
IF
POP
PUSHB_1
 128
EIF
SCVTCI
PUSHB_1
 6
CALL
NOT
IF
SVTCA[y-axis]
PUSHB_1
 3
DUP
RCVT
PUSHB_1
 3
CALL
WCVTP
PUSHB_1
 4
DUP
RCVT
PUSHB_3
 3
 27
 2
CALL
PUSHB_1
 3
CALL
WCVTP
SVTCA[x-axis]
PUSHB_1
 5
DUP
RCVT
PUSHB_1
 3
CALL
WCVTP
PUSHB_1
 6
DUP
RCVT
PUSHB_3
 5
 27
 2
CALL
PUSHB_2
 3
 70
SROUND
CALL
WCVTP
EIF
PUSHB_1
 20
CALL
EndTTInstrs
TtTable: fpgm
PUSHB_1
 0
FDEF
PUSHB_1
 0
SZP0
MPPEM
PUSHB_1
 42
LT
IF
PUSHB_1
 74
SROUND
EIF
PUSHB_1
 0
SWAP
MIAP[rnd]
RTG
PUSHB_1
 6
CALL
IF
RTDG
EIF
MPPEM
PUSHB_1
 42
LT
IF
RDTG
EIF
DUP
MDRP[rp0,rnd,grey]
PUSHB_1
 1
SZP0
MDAP[no-rnd]
RTG
ENDF
PUSHB_1
 1
FDEF
DUP
MDRP[rp0,min,white]
PUSHB_1
 12
CALL
ENDF
PUSHB_1
 2
FDEF
MPPEM
GT
IF
RCVT
SWAP
EIF
POP
ENDF
PUSHB_1
 3
FDEF
ROUND[Black]
RTG
DUP
PUSHB_1
 64
LT
IF
POP
PUSHB_1
 64
EIF
ENDF
PUSHB_1
 4
FDEF
PUSHB_1
 6

StartChar: A
Encoding: 65 65 0
Width: 1113
VWidth: 1000
Flags: W
HStem: -57 108<177.545 274.009> -33 69<899 991.753> 158 69<502.379 783>
VStem: 90 58<79.3867 101.047>
LayerCount: 2
Fore
SplineSet
795 158 m 1,0,-1
 475 158 l 2,1,2
 464 158 464 158 454 159 c 1,3,4
 370 49 370 49 313 -4 c 128,-1,5
 256 -57 256 -57 210 -57 c 0,6,7
 163 -57 163 -57 126.5 -25.5 c 128,-1,8
 90 6 90 6 90 33 c 0,9,10
 90 62 90 62 105 88 c 0,11,12
 111 100 111 100 117 107 c 128,-1,13
 123 114 123 114 126.5 115.5 c 128,-1,14
 130 117 130 117 138 120 c 1,15,-1
 144 115 l 1,16,17
 144 111 144 111 148 107 c 0,18,19
 148 106 148 106 151.5 100.5 c 128,-1,20
 155 95 155 95 156 94 c 0,21,22
 192 51 192 51 244 51 c 0,23,24
 280 51 280 51 332 103.5 c 128,-1,25
 384 156 384 156 471 271 c 0,26,27
 626 476 626 476 719 660 c 1,28,-1
 740 682 l 1,29,30
 754 701 754 701 779 715 c 128,-1,31
 804 729 804 729 823 729 c 0,32,33
 834 729 834 729 836 723 c 128,-1,34
 838 717 838 717 839 693 c 0,35,36
 844 562 844 562 872.5 347 c 128,-1,37
 901 132 901 132 944 55 c 0,38,39
 955 36 955 36 979 36 c 0,40,41
 985 36 985 36 997 43 c 0,42,43
 1018 55 1018 55 1036 55 c 0,44,45
 1052 55 1052 55 1052 44 c 0,46,47
 1052 22 1052 22 1002 -5.5 c 128,-1,48
 952 -33 952 -33 908 -33 c 0,49,50
 890 -33 890 -33 876.5 -28 c 128,-1,51
 863 -23 863 -23 854.5 -12 c 128,-1,52
 846 -1 846 -1 842.5 6 c 128,-1,53
 839 13 839 13 833 28 c 0,54,55
 812 82 812 82 795 158 c 1,0,-1
544 227 m 2,56,-1
 783 227 l 1,57,58
 752 419 752 419 741 599 c 1,59,60
 637 403 637 403 502 221 c 1,61,62
 514 227 514 227 544 227 c 2,56,-1
EndSplineSet
EndChar

StartChar: B
Encoding: 66 66 1
Width: 919
VWidth: 1000
Flags: W
HStem: -22 69<361.306 584.962> 640 69<593.167 716.167>
VStem: 727 101<152.758 271.034> 750 101<537.332 609.259>
LayerCount: 2
Fore
SplineSet
637 413 m 1,0,1
 669 409 669 409 700 398.5 c 128,-1,2
 731 388 731 388 761 368.5 c 128,-1,3
 791 349 791 349 809.5 316.5 c 128,-1,4
 828 284 828 284 828 243 c 0,5,6
 828 128 828 128 706.5 53 c 128,-1,7
 585 -22 585 -22 408 -22 c 0,8,9
 343 -22 343 -22 292 -5 c 1,10,11
 209 27 209 27 209 45 c 0,12,13
 209 62 209 62 239.5 82.5 c 128,-1,14
 270 103 270 103 294 103 c 0,15,16
 300 103 300 103 312 96 c 1,17,18
 383 47 383 47 480 47 c 0,19,20
 580 47 580 47 648 74 c 0,21,22
 727 105 727 105 727 197 c 0,23,24
 727 271 727 271 662 309.5 c 128,-1,25
 597 348 597 348 505 348 c 0,26,27
 484 348 484 348 439 343 c 1,28,29
 431 341 431 341 426 341 c 0,30,31
 410 341 410 341 410 353 c 0,32,33
 410 369 410 369 440 390 c 0,34,35
 454 400 454 400 495 414 c 0,36,37
 588 445 588 445 642 466 c 128,-1,38
 696 487 696 487 718.5 503.5 c 128,-1,39
 741 520 741 520 745.5 529.5 c 128,-1,40
 750 539 750 539 750 556 c 0,41,42
 750 595 750 595 717.5 617.5 c 128,-1,43
 685 640 685 640 638 640 c 0,44,45
 527 640 527 640 426 523.5 c 128,-1,46
 325 407 325 407 280 236 c 0,47,48
 263 172 263 172 238.5 115.5 c 128,-1,49
 214 59 214 59 201.5 40 c 128,-1,50
 189 21 189 21 182 12 c 1,51,52
 172 2 172 2 150 -10 c 128,-1,53
 128 -22 128 -22 111 -22 c 0,54,55
 95 -22 95 -22 95 -10 c 0,56,57
 95 -6 95 -6 102 7 c 0,58,59
 142 76 142 76 160 128 c 128,-1,60
 178 180 178 180 200 282 c 1,61,62
 239 454 239 454 255 618 c 1,63,64
 205 593 205 593 190 593 c 0,65,66
 174 593 174 593 174 605 c 0,67,68
 174 626 174 626 223 652 c 0,69,70
 227 654 227 654 296 689 c 1,71,72
 330 705 330 705 343 705 c 0,73,74
 360 705 360 705 360 693 c 0,75,76
 360 654 360 654 335 504 c 1,77,78
 389 567 389 567 448.5 611 c 128,-1,79
 508 655 508 655 559.5 674.5 c 128,-1,80
 611 694 611 694 646.5 701.5 c 128,-1,81
 682 709 682 709 710 709 c 0,82,83
 773 709 773 709 812 679 c 128,-1,84
 851 649 851 649 851 602 c 0,85,86
 851 552 851 552 803 508.5 c 128,-1,87
 755 465 755 465 637 413 c 1,0,1
EndSplineSet
EndChar

StartChar: C
Encoding: 67 67 2
Width: 782
VWidth: 1000
Flags: W
HStem: -24 69<304.438 463.766> 636 69<445.273 648.5>
VStem: 80 101<170.944 360.209> 601 101<554.487 666.5>
LayerCount: 2
Fore
SplineSet
691 160 m 0,0,1
 691 144 691 144 648.5 107.5 c 128,-1,2
 606 71 606 71 570 49 c 0,3,4
 451 -24 451 -24 335 -24 c 0,5,6
 223 -24 223 -24 151.5 47 c 128,-1,7
 80 118 80 118 80 234 c 0,8,9
 80 313 80 313 119 404.5 c 128,-1,10
 158 496 158 496 238 568 c 0,11,12
 312 634 312 634 405.5 669.5 c 128,-1,13
 499 705 499 705 595 705 c 0,14,15
 702 705 702 705 702 628 c 0,16,17
 702 600 702 600 679 553 c 1,18,19
 653 503 653 503 635 482 c 0,20,21
 626 471 626 471 603.5 457.5 c 128,-1,22
 581 444 581 444 561 444 c 0,23,24
 544 444 544 444 544 455 c 0,25,26
 544 462 544 462 556 479 c 0,27,28
 560 484 560 484 569 499 c 128,-1,29
 578 514 578 514 589.5 539.5 c 128,-1,30
 601 565 601 565 601 581 c 0,31,32
 601 612 601 612 581 624 c 128,-1,33
 561 636 561 636 522 636 c 0,34,35
 442 636 442 636 379 607 c 128,-1,36
 316 578 316 578 280 536.5 c 128,-1,37
 244 495 244 495 220.5 443.5 c 128,-1,38
 197 392 197 392 189 352 c 128,-1,39
 181 312 181 312 181 281 c 0,40,41
 181 175 181 175 244.5 110 c 128,-1,42
 308 45 308 45 408 45 c 0,43,44
 512 45 512 45 594 126 c 1,45,46
 637 171 637 171 674 171 c 0,47,48
 691 171 691 171 691 160 c 0,0,1
EndSplineSet
EndChar

StartChar: D
Encoding: 68 68 3
Width: 1083
VWidth: 1000
Flags: W
HStem: 0 69<349 557.413> 614 69<285.149 394 491.412 739.428>
VStem: 394 99<444.809 614> 921 101<328.147 487.443>
LayerCount: 2
Fore
SplineSet
359 0 m 2,0,-1
 219 0 l 2,1,2
 191 0 191 0 191 12 c 128,-1,3
 191 24 191 24 212.5 42 c 128,-1,4
 234 60 234 60 265 68 c 1,5,6
 378 324 378 324 394 614 c 1,7,8
 340 612 340 612 302 606.5 c 128,-1,9
 264 601 264 601 243.5 595 c 128,-1,10
 223 589 223 589 209.5 576.5 c 128,-1,11
 196 564 196 564 192 556 c 128,-1,12
 188 548 188 548 182 531 c 0,13,14
 175 509 175 509 146 492 c 128,-1,15
 117 475 117 475 98 475 c 0,16,17
 82 475 82 475 82 488 c 0,18,19
 82 493 82 493 86 505 c 128,-1,20
 90 517 90 517 104.5 540 c 128,-1,21
 119 563 119 563 141 583 c 0,22,23
 181 619 181 619 228 640.5 c 128,-1,24
 275 662 275 662 335 670.5 c 128,-1,25
 395 679 395 679 433.5 681 c 128,-1,26
 472 683 472 683 543 683 c 0,27,28
 615 683 615 683 652.5 682 c 128,-1,29
 690 681 690 681 744.5 674.5 c 128,-1,30
 799 668 799 668 844 654 c 0,31,32
 1022 600 1022 600 1022 446 c 0,33,34
 1022 345 1022 345 962.5 259 c 128,-1,35
 903 173 903 173 807 117.5 c 128,-1,36
 711 62 711 62 594 31 c 128,-1,37
 477 0 477 0 359 0 c 2,0,-1
540 614 m 2,38,-1
 493 614 l 1,39,40
 481 463 481 463 446.5 336.5 c 128,-1,41
 412 210 412 210 349 69 c 1,42,-1
 423 69 l 2,43,44
 499 69 499 69 598.5 87 c 128,-1,45
 698 105 698 105 777 152 c 0,46,47
 821 178 821 178 852 213 c 128,-1,48
 883 248 883 248 896.5 283.5 c 128,-1,49
 910 319 910 319 915.5 347 c 128,-1,50
 921 375 921 375 921 400 c 0,51,52
 921 451 921 451 897.5 490 c 128,-1,53
 874 529 874 529 837 552 c 128,-1,54
 800 575 800 575 748 589.5 c 128,-1,55
 696 604 696 604 646 609 c 128,-1,56
 596 614 596 614 540 614 c 2,38,-1
EndSplineSet
EndChar

StartChar: E
Encoding: 69 69 4
Width: 770
VWidth: 1000
Flags: W
HStem: -22 69<257.236 450.033> 341 69<387.328 524.747> 636 69<427.067 614.182>
VStem: 93 101<96.6384 185.888> 213 101<462.31 548.534> 626 101<573.706 650.5>
LayerCount: 2
Fore
SplineSet
313 361 m 1,0,1
 213 392 213 392 213 470 c 0,2,3
 213 561 213 561 321.5 633 c 128,-1,4
 430 705 430 705 579 705 c 0,5,6
 655 705 655 705 691 687.5 c 128,-1,7
 727 670 727 670 727 631 c 0,8,9
 727 590 727 590 692.5 562 c 128,-1,10
 658 534 658 534 629 534 c 0,11,12
 613 534 613 534 613 545 c 0,13,14
 613 549 613 549 618 559 c 0,15,16
 626 575 626 575 626 585 c 0,17,18
 626 619 626 619 583 628 c 0,19,20
 546 636 546 636 507 636 c 0,21,22
 430 636 430 636 377 613 c 0,23,24
 314 585 314 585 314 517 c 0,25,26
 314 418 314 418 522 410 c 0,27,28
 535 410 535 410 540 409.5 c 128,-1,29
 545 409 545 409 548.5 406.5 c 128,-1,30
 552 404 552 404 552 398 c 0,31,32
 552 385 552 385 522 361 c 1,33,34
 493 341 493 341 454 341 c 1,35,36
 388 339 388 339 335.5 319.5 c 128,-1,37
 283 300 283 300 253.5 271 c 128,-1,38
 224 242 224 242 209 211.5 c 128,-1,39
 194 181 194 181 194 153 c 0,40,41
 194 118 194 118 218.5 94.5 c 128,-1,42
 243 71 243 71 280.5 62 c 128,-1,43
 318 53 318 53 342.5 50 c 128,-1,44
 367 47 367 47 388 47 c 0,45,46
 427 47 427 47 461.5 56 c 128,-1,47
 496 65 496 65 524 83 c 128,-1,48
 552 101 552 101 565 111.5 c 128,-1,49
 578 122 578 122 597 140 c 0,50,51
 608 151 608 151 628 161 c 128,-1,52
 648 171 648 171 663 171 c 0,53,54
 680 171 680 171 680 160 c 0,55,56
 680 143 680 143 635.5 106.5 c 128,-1,57
 591 70 591 70 546 44 c 0,58,59
 432 -22 432 -22 316 -22 c 0,60,61
 256 -22 256 -22 207.5 -9.5 c 128,-1,62
 159 3 159 3 126 32.5 c 128,-1,63
 93 62 93 62 93 106 c 0,64,65
 93 138 93 138 113 181.5 c 128,-1,66
 133 225 133 225 171 263 c 0,67,68
 221 313 221 313 313 361 c 1,0,1
EndSplineSet
EndChar

StartChar: F
Encoding: 70 70 5
Width: 988
VWidth: 1000
Flags: W
HStem: -38 70<214.96 309.005> 285 81<775.003 850.384> 296 70<557 775> 614 69<339.424 539 627.221 950.978>
VStem: 539 93<523.531 614>
LayerCount: 2
Fore
SplineSet
1053 644 m 0,0,1
 1053 621 1053 621 1022 601 c 128,-1,2
 991 581 991 581 966 581 c 0,3,4
 957 581 957 581 953 586 c 1,5,-1
 951 593 l 1,6,-1
 951 598 l 2,7,8
 951 614 951 614 862 614 c 2,9,-1
 632 614 l 1,10,11
 602 473 602 473 557 366 c 1,12,-1
 867 366 l 2,13,14
 879 366 879 366 879 354 c 0,15,16
 879 326 879 326 847.5 305.5 c 128,-1,17
 816 285 816 285 788 285 c 0,18,19
 775 285 775 285 775 296 c 1,20,-1
 529 296 l 1,21,22
 438 93 438 93 398 51 c 1,23,24
 360 9 360 9 312 -14.5 c 128,-1,25
 264 -38 264 -38 221 -38 c 0,26,27
 177 -38 177 -38 140.5 -19.5 c 128,-1,28
 104 -1 104 -1 88 17.5 c 128,-1,29
 72 36 72 36 72 46 c 0,30,31
 72 61 72 61 102 82 c 128,-1,32
 132 103 132 103 163 103 c 0,33,34
 167 103 167 103 179.5 85.5 c 128,-1,35
 192 68 192 68 221.5 50 c 128,-1,36
 251 32 251 32 296 32 c 0,37,38
 298 32 298 32 301 32.5 c 128,-1,39
 304 33 304 33 306 33 c 0,40,41
 320 40 320 40 368 133 c 128,-1,42
 416 226 416 226 457 330 c 0,43,44
 511 468 511 468 539 614 c 1,45,-1
 436 614 l 2,46,47
 352 614 352 614 339 611 c 1,48,49
 301 580 301 580 264 580 c 0,50,51
 261 580 261 580 258 583 c 128,-1,52
 255 586 255 586 255 589 c 0,53,54
 255 608 255 608 278 629 c 0,55,56
 334 683 334 683 462 683 c 2,57,-1
 949 683 l 2,58,59
 1053 683 1053 683 1053 644 c 0,0,1
EndSplineSet
EndChar

StartChar: G
Encoding: 71 71 6
Width: 850
VWidth: 1000
Flags: W
HStem: -119 69<272.597 463.535> -90 76<169.154 260.58> 68 69<322.875 479.293> 636 69<452.086 663.498>
VStem: 110 101<245.229 411.533> 679 101<569.515 649.5>
LayerCount: 2
Fore
SplineSet
606 155 m 1,0,1
 479 68 479 68 352 68 c 0,2,3
 245 68 245 68 177.5 132 c 128,-1,4
 110 196 110 196 110 296 c 0,5,6
 110 372 110 372 147.5 445.5 c 128,-1,7
 185 519 185 519 249.5 576.5 c 128,-1,8
 314 634 314 634 410 669.5 c 128,-1,9
 506 705 506 705 615 705 c 0,10,11
 702 705 702 705 741 687.5 c 128,-1,12
 780 670 780 670 780 629 c 0,13,14
 780 589 780 589 725 526 c 1,15,16
 669 466 669 466 630 466 c 0,17,18
 613 466 613 466 613 477 c 0,19,20
 613 487 613 487 631 505 c 0,21,22
 679 553 679 553 679 583 c 0,23,24
 679 598 679 598 670 608 c 128,-1,25
 661 618 661 618 654 620.5 c 128,-1,26
 647 623 647 623 632 627 c 0,27,28
 594 636 594 636 543 636 c 0,29,30
 392 636 392 636 312 565 c 0,31,32
 261 521 261 521 236 458 c 128,-1,33
 211 395 211 395 211 342 c 0,34,35
 211 253 211 253 271 195 c 128,-1,36
 331 137 331 137 425 137 c 0,37,38
 504 137 504 137 566 183 c 0,39,40
 633 233 633 233 659 323 c 0,41,42
 665 341 665 341 693.5 358.5 c 128,-1,43
 722 376 722 376 742 376 c 0,44,45
 759 376 759 376 759 364 c 0,46,47
 759 356 759 356 743.5 299.5 c 128,-1,48
 728 243 728 243 688 151 c 128,-1,49
 648 59 648 59 599 3 c 0,50,51
 490 -119 490 -119 350 -119 c 0,52,53
 256 -119 256 -119 169 -90 c 0,54,55
 141 -81 141 -81 141 -71 c 0,56,57
 141 -56 141 -56 171 -35 c 128,-1,58
 201 -14 201 -14 225 -14 c 0,59,60
 232 -14 232 -14 246 -19 c 0,61,62
 333 -50 333 -50 423 -50 c 0,63,64
 456 -50 456 -50 479 -38 c 128,-1,65
 502 -26 502 -26 533 15 c 1,66,67
 579 80 579 80 606 155 c 1,0,1
EndSplineSet
EndChar

StartChar: H
Encoding: 72 72 7
Width: 1194
VWidth: 1000
Flags: W
HStem: -56 69<824 978.94> 273 69<285.101 373 482 807.527> 614 69<303.473 464>
VStem: 373 88<203.157 273> 428 101<441.113 622.5> 762 101<2.5 184.499>
LayerCount: 2
Fore
SplineSet
482 342 m 1,0,-1
 825 342 l 1,1,2
 841 392 841 392 857 440 c 128,-1,3
 873 488 873 488 885.5 520.5 c 128,-1,4
 898 553 898 553 908 578 c 128,-1,5
 918 603 918 603 923 615.5 c 2,6,-1
 928 628 l 1,7,8
 939 652 939 652 967 667.5 c 128,-1,9
 995 683 995 683 1012 683 c 128,-1,10
 1029 683 1029 683 1029 671 c 0,11,12
 1029 667 1029 667 1019 644 c 0,13,14
 951 479 951 479 906 315 c 0,15,16
 863 156 863 156 863 65 c 0,17,18
 863 45 863 45 875.5 29 c 128,-1,19
 888 13 888 13 916 13 c 0,20,21
 952 13 952 13 988 22 c 1,22,23
 997 49 997 49 1026.5 65 c 128,-1,24
 1056 81 1056 81 1074 81 c 0,25,26
 1089 81 1089 81 1089 69 c 0,27,28
 1089 56 1089 56 1075 37 c 128,-1,29
 1061 18 1061 18 1034 -4 c 128,-1,30
 1007 -26 1007 -26 956.5 -41 c 128,-1,31
 906 -56 906 -56 843 -56 c 0,32,33
 805 -56 805 -56 783.5 -35 c 128,-1,34
 762 -14 762 -14 762 19 c 0,35,36
 762 114 762 114 808 282 c 1,37,38
 793 273 793 273 762 273 c 2,39,-1
 461 273 l 1,40,41
 422 141 422 141 366 13 c 0,42,43
 356 -10 356 -10 328 -25.5 c 128,-1,44
 300 -41 300 -41 282 -41 c 0,45,46
 265 -41 265 -41 265 -29 c 0,47,48
 265 -25 265 -25 274 -5 c 0,49,50
 341 152 341 152 373 273 c 1,51,-1
 286 273 l 2,52,53
 257 273 257 273 257 284 c 0,54,55
 257 301 257 301 286.5 321 c 128,-1,56
 316 341 316 341 343 342 c 1,57,-1
 392 342 l 1,58,59
 408 400 408 400 418 465 c 0,60,61
 428 524 428 524 428 560 c 0,62,63
 428 614 428 614 367 614 c 0,64,65
 313 614 313 614 272.5 597.5 c 128,-1,66
 232 581 232 581 217.5 567 c 128,-1,67
 203 553 203 553 184 529 c 1,68,69
 166 504 166 504 145 491 c 0,70,71
 117 475 117 475 98 475 c 0,72,73
 82 475 82 475 82 487 c 0,74,75
 82 493 82 493 96 513.5 c 128,-1,76
 110 534 110 534 140.5 563 c 128,-1,77
 171 592 171 592 211.5 618.5 c 128,-1,78
 252 645 252 645 313 664 c 128,-1,79
 374 683 374 683 440 683 c 0,80,81
 488 683 488 683 508.5 660.5 c 128,-1,82
 529 638 529 638 529 607 c 0,83,84
 529 513 529 513 482 342 c 1,0,-1
EndSplineSet
EndChar

StartChar: I
Encoding: 73 73 8
Width: 819
VWidth: 1000
Flags: W
HStem: 0 69<89.6163 277.778 354 658.254> 614 69<259.047 522 592.16 812.614>
LayerCount: 2
Fore
SplineSet
743 614 m 2,0,-1
 618 614 l 2,1,2
 597 614 597 614 592 609 c 0,3,4
 546 556 546 556 504 382 c 1,5,6
 477 275 477 275 444.5 198 c 128,-1,7
 412 121 412 121 354 69 c 1,8,-1
 596 69 l 2,9,10
 635 69 635 69 663 75 c 1,11,12
 669 100 669 100 699 118.5 c 128,-1,13
 729 137 729 137 750 137 c 0,14,15
 766 137 766 137 766 125 c 128,-1,16
 766 113 766 113 752.5 93.5 c 128,-1,17
 739 74 739 74 713.5 52.5 c 128,-1,18
 688 31 688 31 639.5 15.5 c 128,-1,19
 591 0 591 0 532 0 c 2,20,-1
 91 0 l 2,21,22
 62 0 62 0 62 11 c 0,23,24
 62 26 62 26 90.5 47.5 c 128,-1,25
 119 69 119 69 160 69 c 2,26,-1
 249 69 l 2,27,28
 271 69 271 69 278 71 c 128,-1,29
 285 73 285 73 297 85 c 0,30,31
 352 144 352 144 402 335 c 1,32,33
 430 446 430 446 454 507 c 128,-1,34
 478 568 478 568 522 614 c 1,35,-1
 402 614 l 2,36,37
 274 614 274 614 214 594 c 0,38,39
 204 590 204 590 201 586 c 128,-1,40
 198 582 198 582 191 565 c 0,41,42
 184 546 184 546 156 529 c 128,-1,43
 128 512 128 512 107 512 c 0,44,45
 91 512 91 512 91 524 c 0,46,47
 91 550 91 550 131 592 c 128,-1,48
 171 634 171 634 250 658 c 1,49,50
 320 683 320 683 466 683 c 2,51,-1
 812 683 l 2,52,53
 823 683 823 683 827.5 682.5 c 128,-1,54
 832 682 832 682 836 679.5 c 128,-1,55
 840 677 840 677 840 671 c 0,56,57
 840 664 840 664 830 651.5 c 128,-1,58
 820 639 820 639 796 626.5 c 128,-1,59
 772 614 772 614 743 614 c 2,0,-1
EndSplineSet
EndChar

StartChar: J
Encoding: 74 74 9
Width: 958
VWidth: 1000
Flags: W
HStem: -119 69<297.166 468.415> 614 69<626.7 863 911.782 1037.78>
VStem: 111 101<16.0257 102.105>
LayerCount: 2
Fore
SplineSet
771 683 m 2,0,-1
 1036 683 l 2,1,2
 1065 683 1065 683 1065 672 c 0,3,4
 1065 657 1065 657 1038 636.5 c 128,-1,5
 1011 616 1011 616 973 614 c 0,6,7
 951 613 951 613 936.5 608 c 128,-1,8
 922 603 922 603 900 580.5 c 128,-1,9
 878 558 878 558 853 514 c 0,10,11
 800 420 800 420 748 212 c 0,12,13
 729 139 729 139 716 107.5 c 128,-1,14
 703 76 703 76 669 36 c 0,15,16
 613 -28 613 -28 523 -73.5 c 128,-1,17
 433 -119 433 -119 337 -119 c 0,18,19
 243 -119 243 -119 177 -77 c 128,-1,20
 111 -35 111 -35 111 38 c 0,21,22
 111 59 111 59 115 73 c 128,-1,23
 119 87 119 87 123.5 92.5 c 128,-1,24
 128 98 128 98 138 106 c 0,25,26
 173 132 173 132 201 132 c 0,27,28
 216 132 216 132 216 119 c 0,29,30
 216 118 216 118 214 105.5 c 128,-1,31
 212 93 212 93 212 84 c 0,32,33
 212 19 212 19 272 -15.5 c 128,-1,34
 332 -50 332 -50 410 -50 c 0,35,36
 491 -50 491 -50 551 -6 c 0,37,38
 581 16 581 16 600.5 45 c 128,-1,39
 620 74 620 74 626.5 93.5 c 128,-1,40
 633 113 633 113 642 148 c 0,41,42
 692 346 692 346 738 447.5 c 128,-1,43
 784 549 784 549 863 614 c 1,44,-1
 707 614 l 2,45,46
 621 614 621 614 557 583 c 0,47,48
 526 568 526 568 505 546 c 128,-1,49
 484 524 484 524 478 510.5 c 128,-1,50
 472 497 472 497 464 473 c 0,51,52
 458 454 458 454 429.5 436.5 c 128,-1,53
 401 419 401 419 380 419 c 0,54,55
 364 419 364 419 364 430 c 0,56,57
 364 434 364 434 367 445.5 c 128,-1,58
 370 457 370 457 383.5 483 c 128,-1,59
 397 509 397 509 419 534 c 0,60,61
 474 597 474 597 571.5 640 c 128,-1,62
 669 683 669 683 771 683 c 2,0,-1
EndSplineSet
EndChar

StartChar: K
Encoding: 75 75 10
Width: 1055
VWidth: 1000
Flags: W
HStem: -22 58<669.207 825.149> 593 112<854.909 911.34> 647 58<744.977 872.5>
VStem: 259 101<475.839 620> 327 78<358.676 455.844> 855 78<599.566 654.998>
LayerCount: 2
Fore
SplineSet
259 620 m 1,0,1
 205 593 205 593 190 593 c 0,2,3
 174 593 174 593 174 605 c 0,4,5
 174 621 174 621 194.5 634.5 c 128,-1,6
 215 648 215 648 274 678 c 0,7,8
 328 705 328 705 343 705 c 0,9,10
 355 705 355 705 357.5 699.5 c 128,-1,11
 360 694 360 694 360 670 c 0,12,13
 360 492 360 492 267 220 c 0,14,15
 218 78 218 78 192 26 c 0,16,17
 183 10 183 10 156.5 -6 c 128,-1,18
 130 -22 130 -22 111 -22 c 0,19,20
 95 -22 95 -22 95 -10 c 0,21,22
 95 -6 95 -6 103 12 c 0,23,24
 178 194 178 194 222 365 c 0,25,26
 253 483 253 483 259 620 c 1,0,1
948 144 m 1,27,28
 959 140 959 140 959 129 c 0,29,30
 959 113 959 113 943.5 89 c 128,-1,31
 928 65 928 65 898.5 39.5 c 128,-1,32
 869 14 869 14 813 -4 c 128,-1,33
 757 -22 757 -22 687 -22 c 0,34,35
 632 -22 632 -22 566 34 c 0,36,37
 482 106 482 106 404.5 226 c 128,-1,38
 327 346 327 346 327 402 c 0,39,40
 327 457 327 457 434 531 c 128,-1,41
 541 605 541 605 667 655 c 128,-1,42
 793 705 793 705 854 705 c 0,43,44
 891 705 891 705 912 686.5 c 128,-1,45
 933 668 933 668 933 642 c 0,46,47
 933 614 933 614 911.5 600 c 128,-1,48
 890 586 890 586 873 586 c 0,49,50
 854 586 854 586 854 600 c 0,51,52
 854 601 854 601 854.5 605 c 128,-1,53
 855 609 855 609 855 612 c 0,54,55
 855 628 855 628 842 636.5 c 128,-1,56
 829 645 829 645 821.5 646 c 128,-1,57
 814 647 814 647 808 647 c 0,58,59
 770 647 770 647 672 607 c 128,-1,60
 574 567 574 567 489.5 514 c 128,-1,61
 405 461 405 461 405 432 c 0,62,63
 405 390 405 390 461 295.5 c 128,-1,64
 517 201 517 201 597 118.5 c 128,-1,65
 677 36 677 36 733 36 c 0,66,67
 786 36 786 36 828 51 c 0,68,69
 847 58 847 58 858 66.5 c 128,-1,70
 869 75 869 75 873 83 c 128,-1,71
 877 91 877 91 882 106 c 0,72,73
 886 118 886 118 903 130.5 c 128,-1,74
 920 143 920 143 948 144 c 1,27,28
EndSplineSet
EndChar

StartChar: L
Encoding: 76 76 11
Width: 964
VWidth: 1000
Flags: W
HStem: -22 74<526.061 726.378> 29 74<205.539 399.857> 631 74<565.525 702>
VStem: 682 111<545.977 603.995>
LayerCount: 2
Fore
SplineSet
277 101 m 1,0,1
 290 103 290 103 315 103 c 0,2,3
 381 103 381 103 523 75 c 1,4,5
 630 52 630 52 698 52 c 0,6,7
 729 52 729 52 739.5 59.5 c 128,-1,8
 750 67 750 67 758 90 c 128,-1,9
 766 113 766 113 799 132.5 c 128,-1,10
 832 152 832 152 855 152 c 0,11,12
 868 152 868 152 868 141 c 0,13,14
 868 98 868 98 790.5 38 c 128,-1,15
 713 -22 713 -22 612 -22 c 0,16,17
 546 -22 546 -22 423 2 c 1,18,19
 296 29 296 29 229 29 c 0,20,21
 207 29 207 29 195 19 c 0,22,23
 142 -22 142 -22 110 -22 c 0,24,25
 95 -22 95 -22 95 -11 c 0,26,27
 95 -7 95 -7 97.5 -2 c 128,-1,28
 100 3 100 3 104 7.5 c 128,-1,29
 108 12 108 12 113 16.5 c 128,-1,30
 118 21 118 21 122 24.5 c 128,-1,31
 126 28 126 28 129 30.5 c 2,32,-1
 132 33 l 1,33,34
 175 64 175 64 205 117 c 0,35,36
 232 163 232 163 251 237 c 0,37,38
 281 353 281 353 332 457 c 1,39,40
 392 576 392 576 487 640.5 c 128,-1,41
 582 705 582 705 674 705 c 0,42,43
 730 705 730 705 761.5 674.5 c 128,-1,44
 793 644 793 644 793 601 c 0,45,46
 793 576 793 576 785.5 563.5 c 128,-1,47
 778 551 778 551 761 538 c 0,48,49
 723 509 723 509 692 509 c 0,50,51
 679 509 679 509 679 520 c 0,52,53
 679 521 679 521 680.5 529.5 c 128,-1,54
 682 538 682 538 682 547 c 0,55,56
 682 585 682 585 656 608 c 128,-1,57
 630 631 630 631 588 631 c 0,58,59
 568 631 568 631 553 626 c 128,-1,60
 538 621 538 621 514 599.5 c 128,-1,61
 490 578 490 578 463 537 c 0,62,63
 406 447 406 447 357 270 c 1,64,65
 334 182 334 182 277 101 c 1,0,1
EndSplineSet
EndChar

StartChar: M
Encoding: 77 77 12
Width: 1567
VWidth: 1000
Flags: W
HStem: -57 108<157.082 257.27> -31 86<1311 1432> 685 20G<536.5 552 1385 1394.5>
VStem: 471 96<614.682 683.102> 1238 101<45.8211 396.027>
LayerCount: 2
Fore
SplineSet
1276 510 m 1,0,-1
 973 218 l 2,1,2
 919 165 919 165 841 99.5 c 128,-1,3
 763 34 763 34 754 34 c 128,-1,4
 745 34 745 34 722 63.5 c 128,-1,5
 699 93 699 93 682.5 119 c 128,-1,6
 666 145 666 145 654 166 c 0,7,8
 626 215 626 215 580 331.5 c 128,-1,9
 534 448 534 448 504 543 c 1,10,11
 459 324 459 324 355 110 c 1,12,13
 277 -57 277 -57 203 -57 c 0,14,15
 168 -57 168 -57 131 -42 c 1,16,17
 90 -24 90 -24 90 -1 c 0,18,19
 90 27 90 27 105 56 c 128,-1,20
 120 85 120 85 134 85 c 0,21,22
 139 85 139 85 146 80 c 0,23,24
 189 51 189 51 237 51 c 0,25,26
 247 51 247 51 254.5 54.5 c 128,-1,27
 262 58 262 58 276.5 72 c 128,-1,28
 291 86 291 86 311 123.5 c 128,-1,29
 331 161 331 161 356 222 c 0,30,31
 407 346 407 346 432.5 442 c 128,-1,32
 458 538 458 538 471 651 c 0,33,34
 473 670 473 670 499.5 687.5 c 128,-1,35
 526 705 526 705 547 705 c 0,36,37
 557 705 557 705 560 701 c 128,-1,38
 563 697 563 697 567 685 c 0,39,40
 680 299 680 299 787 147 c 1,41,42
 904 236 904 236 1048 378 c 2,43,-1
 1368 691 l 2,44,45
 1382 705 1382 705 1388 705 c 0,46,47
 1401 705 1401 705 1401 683 c 0,48,49
 1401 667 1401 667 1393 645 c 1,50,51
 1382 608 1382 608 1360.5 435.5 c 128,-1,52
 1339 263 1339 263 1339 172 c 0,53,54
 1339 129 1339 129 1345 88 c 0,55,56
 1347 70 1347 70 1349.5 62 c 128,-1,57
 1352 54 1352 54 1360 46.5 c 128,-1,58
 1368 39 1368 39 1383 38 c 1,59,60
 1413 55 1413 55 1432 55 c 0,61,62
 1448 55 1448 55 1448 43 c 0,63,64
 1448 23 1448 23 1400 -4 c 128,-1,65
 1352 -31 1352 -31 1311 -31 c 0,66,67
 1257 -31 1257 -31 1247 18 c 0,68,69
 1238 67 1238 67 1238 125 c 0,70,71
 1238 263 1238 263 1276 510 c 1,0,-1
EndSplineSet
EndChar

StartChar: N
Encoding: 78 78 13
Width: 1126
VWidth: 1000
Flags: W
HStem: -57 108<87.1033 191.404> 683 108<1078.51 1200.29> 685 20G<428 443.5>
LayerCount: 2
Fore
SplineSet
454 699 m 1,0,-1
 472 659 l 1,1,2
 536 514 536 514 608 379 c 0,3,4
 671 262 671 262 715 190.5 c 128,-1,5
 759 119 759 119 809 64 c 1,6,-1
 839 186 l 2,7,8
 915 497 915 497 965 633 c 0,9,10
 976 662 976 662 983 677 c 128,-1,11
 990 692 990 692 1009 717.5 c 128,-1,12
 1028 743 1028 743 1051 756.5 c 128,-1,13
 1074 770 1074 770 1114.5 780.5 c 128,-1,14
 1155 791 1155 791 1207 791 c 0,15,16
 1226 791 1226 791 1231.5 787.5 c 128,-1,17
 1237 784 1237 784 1237 767 c 0,18,19
 1237 735 1237 735 1217 704 c 0,20,21
 1207 689 1207 689 1200.5 686 c 128,-1,22
 1194 683 1194 683 1176 683 c 0,23,24
 1066 683 1066 683 1016 639 c 1,25,26
 996 595 996 595 948 425 c 128,-1,27
 900 255 900 255 847 18 c 1,28,-1
 846 17 l 1,29,-1
 845 16 l 1,30,31
 835 -5 835 -5 812 -18.5 c 128,-1,32
 789 -32 789 -32 771 -32 c 0,33,34
 761 -32 761 -32 756 -28 c 0,35,36
 716 11 716 11 665 80 c 0,37,38
 622 139 622 139 560 252 c 128,-1,39
 498 365 498 365 463 436 c 128,-1,40
 428 507 428 507 405 557 c 1,41,42
 369 324 369 324 284 113 c 0,43,44
 215 -57 215 -57 136 -57 c 0,45,46
 102 -57 102 -57 66 -42 c 0,47,48
 45 -34 45 -34 34.5 -25.5 c 128,-1,49
 24 -17 24 -17 22.5 -12 c 128,-1,50
 21 -7 21 -7 21 2 c 0,51,52
 21 28 21 28 36 56 c 0,53,54
 43 69 43 69 48.5 75 c 128,-1,55
 54 81 54 81 57.5 82 c 128,-1,56
 61 83 61 83 71 85 c 1,57,58
 112 51 112 51 171 51 c 0,59,60
 207 51 207 51 231 106 c 1,61,62
 262 169 262 169 306.5 320 c 128,-1,63
 351 471 351 471 363 637 c 1,64,65
 364 667 364 667 386 684 c 1,66,67
 417 705 417 705 439 705 c 0,68,69
 448 705 448 705 454 699 c 1,0,-1
EndSplineSet
EndChar

StartChar: O
Encoding: 79 79 14
Width: 1089
VWidth: 1000
Flags: W
HStem: -22 69<392.019 594.62> 636 69<431.252 492.207 652.345 794.582>
VStem: 122 101<205.358 393.819> 909 101<327.955 514.784>
LayerCount: 2
Fore
SplineSet
1010 452 m 0,0,1
 1010 352 1010 352 957 261.5 c 128,-1,2
 904 171 904 171 821 110.5 c 128,-1,3
 738 50 738 50 638 14 c 128,-1,4
 538 -22 538 -22 444 -22 c 0,5,6
 301 -22 301 -22 211.5 60 c 128,-1,7
 122 142 122 142 122 269 c 0,8,9
 122 354 122 354 159.5 429 c 128,-1,10
 197 504 197 504 249 557 c 0,11,12
 302 610 302 610 363.5 646.5 c 128,-1,13
 425 683 425 683 458 694 c 128,-1,14
 491 705 491 705 502 705 c 0,15,16
 519 705 519 705 519 693 c 0,17,18
 519 663 519 663 443 636 c 0,19,20
 348 602 348 602 285.5 510.5 c 128,-1,21
 223 419 223 419 223 315 c 0,22,23
 223 199 223 199 304.5 123 c 128,-1,24
 386 47 386 47 517 47 c 0,25,26
 619 47 619 47 708 91.5 c 128,-1,27
 797 136 797 136 853 219.5 c 128,-1,28
 909 303 909 303 909 405 c 0,29,30
 909 506 909 506 850 571 c 128,-1,31
 791 636 791 636 696 636 c 0,32,33
 585 636 585 636 502 482 c 0,34,35
 490 461 490 461 463.5 446 c 128,-1,36
 437 431 437 431 420 431 c 128,-1,37
 403 431 403 431 403 442 c 0,38,39
 403 451 403 451 419.5 479.5 c 128,-1,40
 436 508 436 508 469 546.5 c 128,-1,41
 502 585 502 585 544.5 620.5 c 128,-1,42
 587 656 587 656 647 680.5 c 128,-1,43
 707 705 707 705 769 705 c 0,44,45
 877 705 877 705 943.5 634.5 c 128,-1,46
 1010 564 1010 564 1010 452 c 0,0,1
EndSplineSet
EndChar

StartChar: P
Encoding: 80 80 15
Width: 997
VWidth: 1000
Flags: W
HStem: 205 69<477.154 651> 614 69<284.094 394 490.153 763.395>
VStem: 394 98<448.964 614> 876 101<435.719 538.582>
LayerCount: 2
Fore
SplineSet
577 614 m 2,0,-1
 492 614 l 1,1,2
 481 476 481 476 449 348 c 0,3,4
 403 164 403 164 325 -8 c 1,5,6
 316 -24 316 -24 289 -40.5 c 128,-1,7
 262 -57 262 -57 241 -57 c 0,8,9
 227 -57 227 -57 227 -45 c 0,10,11
 227 -41 227 -41 236 -22 c 0,12,13
 382 306 382 306 394 614 c 1,14,15
 340 612 340 612 302 606.5 c 128,-1,16
 264 601 264 601 243.5 595 c 128,-1,17
 223 589 223 589 209.5 576.5 c 128,-1,18
 196 564 196 564 192 556 c 128,-1,19
 188 548 188 548 182 531 c 0,20,21
 175 509 175 509 146 492 c 128,-1,22
 117 475 117 475 98 475 c 0,23,24
 82 475 82 475 82 488 c 0,25,26
 82 494 82 494 86.5 509 c 128,-1,27
 91 524 91 524 117.5 558 c 128,-1,28
 144 592 144 592 188 618 c 0,29,30
 227 642 227 642 267 655.5 c 128,-1,31
 307 669 307 669 360 675 c 128,-1,32
 413 681 413 681 450 682 c 128,-1,33
 487 683 487 683 562 683 c 0,34,35
 748 683 748 683 819 667 c 0,36,37
 977 631 977 631 977 525 c 0,38,39
 977 444 977 444 908 370 c 128,-1,40
 839 296 839 296 723 250.5 c 128,-1,41
 607 205 607 205 477 205 c 0,42,43
 466 205 466 205 461.5 205.5 c 128,-1,44
 457 206 457 206 453 208.5 c 128,-1,45
 449 211 449 211 449 217 c 0,46,47
 449 233 449 233 479 253 c 128,-1,48
 509 273 509 273 531 274 c 0,49,50
 663 277 663 277 747 311 c 0,51,52
 789 328 789 328 817.5 353.5 c 128,-1,53
 846 379 846 379 857.5 405.5 c 128,-1,54
 869 432 869 432 872.5 448.5 c 128,-1,55
 876 465 876 465 876 478 c 0,56,57
 876 506 876 506 861.5 528.5 c 128,-1,58
 847 551 847 551 826 564.5 c 128,-1,59
 805 578 805 578 773.5 588.5 c 128,-1,60
 742 599 742 599 716.5 603.5 c 128,-1,61
 691 608 691 608 657.5 610.5 c 128,-1,62
 624 613 624 613 609.5 613.5 c 128,-1,63
 595 614 595 614 577 614 c 2,0,-1
EndSplineSet
EndChar

StartChar: Q
Encoding: 81 81 16
Width: 1131
VWidth: 1000
Flags: W
HStem: -131 69<699.535 908.209> -34 69<255.616 405.16> 102 69<380.535 561.729> 636 69<547.106 747.601>
VStem: 178 101<264.408 404.064> 897 101<322.535 496.141>
LayerCount: 2
Fore
SplineSet
552 -2 m 1,0,1
 763 -62 763 -62 859 -62 c 0,2,3
 890 -62 890 -62 908 -55.5 c 128,-1,4
 926 -49 926 -49 930.5 -42.5 c 128,-1,5
 935 -36 935 -36 940 -23 c 0,6,7
 950 4 950 4 979 19.5 c 128,-1,8
 1008 35 1008 35 1027 35 c 0,9,10
 1042 35 1042 35 1042 23 c 0,11,12
 1042 -18 1042 -18 968 -74.5 c 128,-1,13
 894 -131 894 -131 787 -131 c 0,14,15
 690 -131 690 -131 518 -84 c 0,16,17
 344 -36 344 -36 243 -34 c 0,18,19
 228 -34 228 -34 228 -22 c 0,20,21
 228 -8 228 -8 256.5 13.5 c 128,-1,22
 285 35 285 35 321 35 c 0,23,24
 449 36 449 36 544.5 52.5 c 128,-1,25
 640 69 640 69 722 117 c 0,26,27
 802 164 802 164 849.5 236 c 128,-1,28
 897 308 897 308 897 394 c 0,29,30
 897 498 897 498 822 567 c 128,-1,31
 747 636 747 636 627 636 c 0,32,33
 478 636 478 636 378.5 546.5 c 128,-1,34
 279 457 279 457 279 347 c 0,35,36
 279 271 279 271 337 221 c 128,-1,37
 395 171 395 171 488 171 c 0,38,39
 554 171 554 171 624 197 c 0,40,41
 644 205 644 205 654 205 c 0,42,43
 671 205 671 205 671 193 c 0,44,45
 671 162 671 162 586 132 c 128,-1,46
 501 102 501 102 415 102 c 0,47,48
 310 102 310 102 244 158.5 c 128,-1,49
 178 215 178 215 178 301 c 0,50,51
 178 399 178 399 254 493.5 c 128,-1,52
 330 588 330 588 451.5 646.5 c 128,-1,53
 573 705 573 705 699 705 c 0,54,55
 833 705 833 705 915.5 630 c 128,-1,56
 998 555 998 555 998 440 c 0,57,58
 998 291 998 291 869 170.5 c 128,-1,59
 740 50 740 50 552 -2 c 1,0,1
EndSplineSet
EndChar

StartChar: R
Encoding: 82 82 17
Width: 1196
VWidth: 1000
Flags: W
HStem: -22 69<828.5 961.171> 274 68<540.367 577.562> 614 69<334.219 394 490.49 799.65>
VStem: 394 98<441.866 614> 872 101<469.116 565.292>
LayerCount: 2
Fore
SplineSet
599 614 m 2,0,-1
 492 614 l 1,1,2
 486 513 486 513 463.5 407 c 128,-1,3
 441 301 441 301 411 219 c 128,-1,4
 381 137 381 137 363.5 95 c 128,-1,5
 346 53 346 53 333 26 c 0,6,7
 325 10 325 10 298.5 -6 c 128,-1,8
 272 -22 272 -22 252 -22 c 0,9,10
 236 -22 236 -22 236 -10 c 0,11,12
 236 -6 236 -6 242 7 c 0,13,14
 378 307 378 307 394 614 c 1,15,16
 340 612 340 612 302 606.5 c 128,-1,17
 264 601 264 601 243.5 595 c 128,-1,18
 223 589 223 589 209.5 576.5 c 128,-1,19
 196 564 196 564 192 556 c 128,-1,20
 188 548 188 548 182 531 c 0,21,22
 175 509 175 509 146 492 c 128,-1,23
 117 475 117 475 98 475 c 0,24,25
 82 475 82 475 82 488 c 0,26,27
 82 498 82 498 91 519.5 c 128,-1,28
 100 541 100 541 137.5 579 c 128,-1,29
 175 617 175 617 234 642 c 0,30,31
 301 670 301 670 367.5 676.5 c 128,-1,32
 434 683 434 683 573 683 c 0,33,34
 649 683 649 683 686 682.5 c 128,-1,35
 723 682 723 682 779.5 678.5 c 128,-1,36
 836 675 836 675 863 667 c 128,-1,37
 890 659 890 659 920 645 c 128,-1,38
 950 631 950 631 961.5 608.5 c 128,-1,39
 973 586 973 586 973 555 c 0,40,41
 973 471 973 471 894.5 398.5 c 128,-1,42
 816 326 816 326 694 294 c 1,43,44
 726 259 726 259 773 189 c 0,45,46
 825 112 825 112 856.5 79.5 c 128,-1,47
 888 47 888 47 924 47 c 0,48,49
 988 47 988 47 1040 98 c 1,50,51
 1078 137 1078 137 1115 137 c 0,52,53
 1131 137 1131 137 1131 125 c 0,54,55
 1131 111 1131 111 1092.5 77 c 128,-1,56
 1054 43 1054 43 985 10.5 c 128,-1,57
 916 -22 916 -22 851 -22 c 0,58,59
 806 -22 806 -22 769 12 c 128,-1,60
 732 46 732 46 676 129 c 0,61,62
 633 194 633 194 604 225.5 c 128,-1,63
 575 257 575 257 561.5 263.5 c 128,-1,64
 548 270 548 270 524 274 c 0,65,66
 521 274 521 274 517.5 277 c 128,-1,67
 514 280 514 280 514 284 c 0,68,69
 514 302 514 302 544 322 c 1,70,71
 576 342 576 342 616 342 c 0,72,73
 717 342 717 342 796 382 c 0,74,75
 836 403 836 403 854 440 c 128,-1,76
 872 477 872 477 872 509 c 0,77,78
 872 543 872 543 853 564 c 128,-1,79
 834 585 834 585 771.5 599.5 c 128,-1,80
 709 614 709 614 599 614 c 2,0,-1
EndSplineSet
EndChar

StartChar: S
Encoding: 83 83 18
Width: 868
VWidth: 1000
Flags: W
HStem: -22 69<298.708 531.278> 636 69<467.54 685.012>
VStem: 85 101<125.827 200.075> 273 101<474.227 561.1> 673 101<150.744 250.787> 731 101<542.531 601.422>
LayerCount: 2
Fore
SplineSet
774 234 m 0,0,1
 774 133 774 133 656.5 55.5 c 128,-1,2
 539 -22 539 -22 353 -22 c 0,3,4
 254 -22 254 -22 180 17 c 0,5,6
 85 67 85 67 85 132 c 0,7,8
 85 188 85 188 136.5 231 c 128,-1,9
 188 274 188 274 233 274 c 0,10,11
 251 274 251 274 251 262 c 0,12,13
 251 252 251 252 237.5 239 c 128,-1,14
 224 226 224 226 205 217 c 0,15,16
 198 213 198 213 195 210.5 c 128,-1,17
 192 208 192 208 189 200 c 128,-1,18
 186 192 186 192 186 179 c 0,19,20
 186 127 186 127 260 87 c 128,-1,21
 334 47 334 47 426 47 c 0,22,23
 526 47 526 47 595 74 c 0,24,25
 673 105 673 105 673 187 c 0,26,27
 673 220 673 220 655.5 246 c 128,-1,28
 638 272 638 272 606 289.5 c 128,-1,29
 574 307 574 307 541 318 c 128,-1,30
 508 329 508 329 465 338 c 0,31,32
 273 376 273 376 273 485 c 0,33,34
 273 571 273 571 374 638 c 128,-1,35
 475 705 475 705 621 705 c 0,36,37
 697 705 697 705 759 684 c 0,38,39
 774 679 774 679 783.5 675 c 128,-1,40
 793 671 793 671 806 661.5 c 128,-1,41
 819 652 819 652 825.5 635.5 c 128,-1,42
 832 619 832 619 832 597 c 0,43,44
 832 558 832 558 803 537 c 1,45,46
 772 512 772 512 744 512 c 0,47,48
 728 512 728 512 728 524 c 1,49,-1
 729.5 533.5 l 2,50,51
 731 543 731 543 731 550 c 0,52,53
 731 568 731 568 726 580.5 c 128,-1,54
 721 593 721 593 710 600.5 c 128,-1,55
 699 608 699 608 690.5 611.5 c 128,-1,56
 682 615 682 615 667 619 c 0,57,58
 610 636 610 636 548 636 c 0,59,60
 480 636 480 636 429 617 c 0,61,62
 374 596 374 596 374 531 c 0,63,64
 374 506 374 506 387.5 485.5 c 128,-1,65
 401 465 401 465 417.5 453 c 128,-1,66
 434 441 434 441 461.5 430 c 128,-1,67
 489 419 489 419 504 415.5 c 128,-1,68
 519 412 519 412 542 407 c 0,69,70
 774 358 774 358 774 234 c 0,0,1
EndSplineSet
EndChar

StartChar: T
Encoding: 84 84 19
Width: 822
VWidth: 1000
Flags: W
HStem: 609 74<285.626 560 647 998.829>
LayerCount: 2
Fore
SplineSet
433 142 m 1,0,-1
 541 574 l 2,1,2
 546 598 546 598 560 609 c 1,3,-1
 319 609 l 2,4,5
 276 609 276 609 250.5 594.5 c 128,-1,6
 225 580 225 580 210 543 c 0,7,8
 206 532 206 532 203 526.5 c 128,-1,9
 200 521 200 521 191 512.5 c 128,-1,10
 182 504 182 504 167 495 c 0,11,12
 135 475 135 475 111 475 c 0,13,14
 98 475 98 475 98 486 c 0,15,16
 98 491 98 491 103 504 c 128,-1,17
 108 517 108 517 122.5 539 c 128,-1,18
 137 561 137 561 159.5 583.5 c 128,-1,19
 182 606 182 606 222.5 630 c 128,-1,20
 263 654 263 654 313 671 c 0,21,22
 351 683 351 683 450 683 c 2,23,-1
 930 683 l 2,24,25
 994 683 994 683 999 686 c 0,26,27
 1046 717 1046 717 1070 717 c 0,28,29
 1085 717 1085 717 1085 706 c 0,30,31
 1085 692 1085 692 1063 669 c 128,-1,32
 1041 646 1041 646 999 629 c 1,33,34
 959 609 959 609 871 609 c 2,35,-1
 647 609 l 1,36,-1
 542 186 l 2,37,38
 527 125 527 125 499.5 60 c 128,-1,39
 472 -5 472 -5 460 -21 c 0,40,41
 449 -36 449 -36 421 -52 c 128,-1,42
 393 -68 393 -68 373 -68 c 0,43,44
 357 -68 357 -68 357 -57 c 0,45,46
 357 -52 357 -52 367 -34 c 0,47,48
 414 58 414 58 433 142 c 1,0,-1
EndSplineSet
EndChar

StartChar: U
Encoding: 85 85 20
Width: 873
VWidth: 1000
Flags: W
HStem: -22 69<134 267.625> 614 69<125.443 261>
VStem: 38 101<87.7613 250.444> 186 101<548.042 658.5> 606 101<10 173.374>
LayerCount: 2
Fore
SplineSet
669 321 m 1,0,1
 526 154 526 154 392 66 c 128,-1,2
 258 -22 258 -22 164 -22 c 0,3,4
 104 -22 104 -22 71 19.5 c 128,-1,5
 38 61 38 61 38 131 c 0,6,7
 38 182 38 182 57 241 c 128,-1,8
 76 300 76 300 125 410 c 0,9,10
 186 550 186 550 186 588 c 0,11,12
 186 614 186 614 163 614 c 0,13,14
 127 614 127 614 87 593 c 1,15,16
 66 580 66 580 46 580 c 0,17,18
 30 580 30 580 30 592 c 0,19,20
 30 617 30 617 100 650 c 128,-1,21
 170 683 170 683 235 683 c 0,22,23
 287 683 287 683 287 634 c 0,24,25
 287 589 287 589 218 434 c 0,26,27
 175 335 175 335 157 280.5 c 128,-1,28
 139 226 139 226 139 178 c 0,29,30
 139 123 139 123 162.5 85 c 128,-1,31
 186 47 186 47 237 47 c 0,32,33
 301 47 301 47 412 138.5 c 128,-1,34
 523 230 523 230 620.5 353 c 128,-1,35
 718 476 718 476 752 566 c 1,36,37
 775 631 775 631 782 639 c 1,38,39
 792 655 792 655 817 669 c 128,-1,40
 842 683 842 683 860 683 c 0,41,42
 877 683 877 683 877 671 c 0,43,44
 877 650 877 650 844 582 c 1,45,46
 820 525 820 525 763.5 341.5 c 128,-1,47
 707 158 707 158 707 71 c 0,48,49
 707 58 707 58 712.5 50.5 c 128,-1,50
 718 43 718 43 722 41.5 c 128,-1,51
 726 40 726 40 729 40 c 0,52,53
 733 40 733 40 740 44 c 0,54,55
 764 55 764 55 777 55 c 0,56,57
 794 55 794 55 794 43 c 0,58,59
 794 23 794 23 747 -3.5 c 128,-1,60
 700 -30 700 -30 662 -30 c 0,61,62
 640 -30 640 -30 623 -17.5 c 128,-1,63
 606 -5 606 -5 606 25 c 0,64,65
 606 86 606 86 628 173 c 0,66,67
 652 266 652 266 669 321 c 1,0,1
EndSplineSet
EndChar

StartChar: V
Encoding: 86 86 21
Width: 898
VWidth: 1000
Flags: W
HStem: 575 108<719.137 790.138> 618 65<114.943 181.511>
VStem: 327 92<85 353.851> 826 58<451.772 584.5>
LayerCount: 2
Fore
SplineSet
709 575 m 1,0,1
 700 583 700 583 700 597 c 0,2,3
 700 619 700 619 714 651 c 128,-1,4
 728 683 728 683 753 683 c 0,5,6
 805 683 805 683 844.5 648.5 c 128,-1,7
 884 614 884 614 884 555 c 0,8,9
 884 493 884 493 840.5 403.5 c 128,-1,10
 797 314 797 314 700 216 c 0,11,12
 629 145 629 145 540.5 78 c 128,-1,13
 452 11 452 11 398 -21.5 c 128,-1,14
 344 -54 344 -54 335 -54 c 0,15,16
 322 -54 322 -54 322 -31 c 0,17,18
 322 -22 322 -22 324 -1 c 128,-1,19
 326 20 326 20 326 30 c 0,20,21
 326 41 326 41 326.5 62 c 128,-1,22
 327 83 327 83 327 94 c 0,23,24
 327 301 327 301 286 435 c 0,25,26
 267 496 267 496 243 535.5 c 128,-1,27
 219 575 219 575 192 591 c 128,-1,28
 165 607 165 607 149.5 611.5 c 128,-1,29
 134 616 134 616 112 618 c 1,30,31
 94 618 94 618 94 631 c 0,32,33
 94 645 94 645 119.5 664 c 128,-1,34
 145 683 145 683 177 683 c 0,35,36
 322 683 322 683 383 464 c 0,37,38
 419 332 419 332 419 134 c 0,39,40
 419 102 419 102 418 85 c 1,41,42
 537 158 537 158 634.5 244.5 c 128,-1,43
 732 331 732 331 779 395.5 c 128,-1,44
 826 460 826 460 826 492 c 0,45,46
 826 523 826 523 796 548.5 c 128,-1,47
 766 574 766 574 709 575 c 1,0,1
EndSplineSet
EndChar

StartChar: W
Encoding: 87 87 22
Width: 1367
VWidth: 1000
Flags: W
HStem: 575 108<1218.62 1273.47> 618 65<114.943 179.578>
VStem: 289 92<122.133 437.719> 1296 58<450.347 588>
LayerCount: 2
Fore
SplineSet
1209 575 m 1,0,1
 1200 582 1200 582 1200 596 c 0,2,3
 1200 620 1200 620 1214 651.5 c 128,-1,4
 1228 683 1228 683 1252 683 c 0,5,6
 1294 683 1294 683 1324 649 c 128,-1,7
 1354 615 1354 615 1354 561 c 0,8,9
 1354 403 1354 403 1139 144 c 0,10,11
 1091 86 1091 86 1022.5 16 c 128,-1,12
 954 -54 954 -54 941 -54 c 0,13,14
 930 -54 930 -54 926 -16 c 0,15,16
 900 295 900 295 774 563 c 1,17,18
 721 477 721 477 683.5 419 c 128,-1,19
 646 361 646 361 566.5 256.5 c 128,-1,20
 487 152 487 152 398 56 c 0,21,22
 297 -54 297 -54 286 -54 c 0,23,24
 273 -54 273 -54 273 -30 c 0,25,26
 273 -25 273 -25 275 -14 c 0,27,28
 289 82 289 82 289 210 c 0,29,30
 289 362 289 362 260 464 c 0,31,32
 235 553 235 553 195 585 c 128,-1,33
 155 617 155 617 103 618 c 1,34,35
 94 621 94 621 94 631 c 0,36,37
 94 645 94 645 119.5 664 c 128,-1,38
 145 683 145 683 176 683 c 0,39,40
 293 683 293 683 346 530 c 0,41,42
 381 426 381 426 381 250 c 0,43,44
 381 234 381 234 376 121 c 1,45,46
 468 218 468 218 550 324.5 c 128,-1,47
 632 431 632 431 666.5 484 c 128,-1,48
 701 537 701 537 749 616 c 1,49,50
 743 625 743 625 743 630 c 0,51,52
 743 647 743 647 769.5 665 c 128,-1,53
 796 683 796 683 818 683 c 0,54,55
 830 683 830 683 835 675 c 0,56,57
 970 410 970 410 1011 95 c 1,58,59
 1134 215 1134 215 1215 333.5 c 128,-1,60
 1296 452 1296 452 1296 497 c 0,61,62
 1296 508 1296 508 1292.5 519 c 128,-1,63
 1289 530 1289 530 1281 543.5 c 128,-1,64
 1273 557 1273 557 1254 565.5 c 128,-1,65
 1235 574 1235 574 1209 575 c 1,0,1
EndSplineSet
EndChar

StartChar: X
Encoding: 88 88 23
Width: 996
VWidth: 1000
Flags: W
HStem: 0 69<692 831.711> 614 69<375.289 521>
VStem: 115 101<48 116.238> 928 101<565.095 634.5>
LayerCount: 2
Fore
SplineSet
808 69 m 1,0,1
 824 89 824 89 846.5 99.5 c 128,-1,2
 869 110 869 110 884 110 c 0,3,4
 901 110 901 110 901 99 c 0,5,6
 901 94 901 94 896.5 84 c 128,-1,7
 892 74 892 74 879.5 59 c 128,-1,8
 867 44 867 44 848 31 c 128,-1,9
 829 18 829 18 795.5 9 c 128,-1,10
 762 0 762 0 721 0 c 0,11,12
 703 0 703 0 692 1.5 c 128,-1,13
 681 3 681 3 662.5 10 c 128,-1,14
 644 17 644 17 629.5 35 c 128,-1,15
 615 53 615 53 604 82 c 0,16,17
 597 100 597 100 591.5 125.5 c 128,-1,18
 586 151 586 151 576 203.5 c 128,-1,19
 566 256 566 256 554 308 c 1,20,-1
 424 247 l 1,21,22
 318 195 318 195 274 169 c 1,23,24
 236 145 236 145 226 134 c 128,-1,25
 216 123 216 123 216 110 c 0,26,27
 216 94 216 94 225 84.5 c 128,-1,28
 234 75 234 75 240.5 73 c 128,-1,29
 247 71 247 71 257 69 c 0,30,31
 270 67 270 67 270 58 c 0,32,33
 270 41 270 41 240 20.5 c 128,-1,34
 210 0 210 0 181 0 c 0,35,36
 155 0 155 0 135 16.5 c 128,-1,37
 115 33 115 33 115 63 c 0,38,39
 115 84 115 84 131 107.5 c 128,-1,40
 147 131 147 131 166.5 148.5 c 128,-1,41
 186 166 186 166 219.5 187.5 c 128,-1,42
 253 209 253 209 270.5 219 c 128,-1,43
 288 229 288 229 317 244 c 0,44,45
 369 272 369 272 452 311 c 128,-1,46
 535 350 535 350 545 355 c 1,47,-1
 515 506 l 1,48,49
 506 545 506 545 494.5 568.5 c 128,-1,50
 483 592 483 592 465.5 601 c 128,-1,51
 448 610 448 610 435.5 612 c 128,-1,52
 423 614 423 614 399 614 c 1,53,54
 383 594 383 594 360.5 583.5 c 128,-1,55
 338 573 338 573 323 573 c 0,56,57
 306 573 306 573 306 584 c 0,58,59
 306 589 306 589 310.5 599.5 c 128,-1,60
 315 610 315 610 327.5 624.5 c 128,-1,61
 340 639 340 639 359 652 c 128,-1,62
 378 665 378 665 411.5 674 c 128,-1,63
 445 683 445 683 486 683 c 0,64,65
 508 683 508 683 521 680.5 c 128,-1,66
 534 678 534 678 555 667 c 128,-1,67
 576 656 576 656 591.5 627 c 128,-1,68
 607 598 607 598 617 551 c 0,69,70
 622 523 622 523 647 402 c 1,71,72
 813 474 813 474 895 530 c 0,73,74
 916 544 916 544 922 552 c 128,-1,75
 928 560 928 560 928 573 c 0,76,77
 928 609 928 609 890 614 c 0,78,79
 874 616 874 616 874 626 c 0,80,81
 874 642 874 642 904 662.5 c 128,-1,82
 934 683 934 683 962 683 c 128,-1,83
 990 683 990 683 1009.5 666 c 128,-1,84
 1029 649 1029 649 1029 620 c 0,85,86
 1029 587 1029 587 994 550.5 c 128,-1,87
 959 514 959 514 877 466 c 1,88,89
 839 445 839 445 784 417 c 128,-1,90
 729 389 729 389 693 372 c 128,-1,91
 657 355 657 355 656 355 c 1,92,93
 664 318 664 318 674 268 c 128,-1,94
 684 218 684 218 690.5 186.5 c 128,-1,95
 697 155 697 155 702 141 c 0,96,97
 714 107 714 107 731.5 90.5 c 128,-1,98
 749 74 749 74 763.5 71.5 c 128,-1,99
 778 69 778 69 808 69 c 1,0,1
EndSplineSet
EndChar

StartChar: Y
Encoding: 89 89 24
Width: 929
VWidth: 1000
Flags: W
HStem: -143 92<202.109 336.2> 584 99<753.23 837.303> 618 65<169.161 274.372>
VStem: 457 90<97.0063 254.773> 863 54<450.987 558.06>
LayerCount: 2
Fore
SplineSet
750 591 m 1,0,1
 741 597 741 597 741 616 c 128,-1,2
 741 635 741 635 752.5 659 c 128,-1,3
 764 683 764 683 787 683 c 0,4,5
 837 683 837 683 877 649 c 128,-1,6
 917 615 917 615 917 552 c 0,7,8
 917 487 917 487 860.5 372.5 c 128,-1,9
 804 258 804 258 698 149 c 0,10,11
 575 23 575 23 445.5 -60 c 128,-1,12
 316 -143 316 -143 258 -143 c 0,13,14
 183 -143 183 -143 139 -98.5 c 128,-1,15
 95 -54 95 -54 95 -21 c 0,16,17
 95 -1 95 -1 108 22.5 c 128,-1,18
 121 46 121 46 135 46 c 0,19,20
 141 46 141 46 149 32 c 1,21,22
 162 3 162 3 184 -15.5 c 128,-1,23
 206 -34 206 -34 229 -41 c 128,-1,24
 252 -48 252 -48 263.5 -49.5 c 128,-1,25
 275 -51 275 -51 285 -51 c 0,26,27
 331 -51 331 -51 457 29 c 1,28,29
 449 246 449 246 399 405 c 0,30,31
 388 440 388 440 373 471 c 128,-1,32
 358 502 358 502 333.5 538.5 c 128,-1,33
 309 575 309 575 273 596.5 c 128,-1,34
 237 618 237 618 194 618 c 0,35,36
 183 618 183 618 175 610 c 0,37,38
 146 584 146 584 117 584 c 0,39,40
 100 584 100 584 100 596 c 0,41,42
 100 617 100 617 150.5 650 c 128,-1,43
 201 683 201 683 258 683 c 0,44,45
 307 683 307 683 348.5 658.5 c 128,-1,46
 390 634 390 634 418.5 596 c 128,-1,47
 447 558 447 558 469.5 504.5 c 128,-1,48
 492 451 492 451 505.5 400.5 c 128,-1,49
 519 350 519 350 528.5 292.5 c 128,-1,50
 538 235 538 235 541.5 197 c 128,-1,51
 545 159 545 159 547 123 c 0,52,53
 548 97 548 97 549 97 c 0,54,55
 551 97 551 97 575 116 c 128,-1,56
 599 135 599 135 640 173 c 128,-1,57
 681 211 681 211 716 251 c 0,58,59
 775 317 775 317 811 380.5 c 128,-1,60
 847 444 847 444 855 471 c 128,-1,61
 863 498 863 498 863 509 c 0,62,63
 863 538 863 538 835 564 c 128,-1,64
 807 590 807 590 750 591 c 1,0,1
EndSplineSet
EndChar

StartChar: Z
Encoding: 90 90 25
Width: 991
VWidth: 1000
Flags: W
HStem: 0 74<446.126 756.01> 22 74<203.783 522.813> 343 58<408.384 534 585.013 632.954 687.003 705.968> 587 74<585.178 895.463> 609 74<441.148 781.609>
LayerCount: 2
Fore
SplineSet
470 401 m 2,0,-1
 608 401 l 1,1,2
 702 480 702 480 721 498 c 0,3,4
 795 563 795 563 819 588 c 1,5,6
 810 587 810 587 786 587 c 0,7,8
 736 587 736 587 648 597 c 0,9,10
 550 609 550 609 501 609 c 0,11,12
 449 609 449 609 410 597 c 0,13,14
 394 593 394 593 386.5 585.5 c 128,-1,15
 379 578 379 578 371 557 c 0,16,17
 362 530 362 530 328.5 511 c 128,-1,18
 295 492 295 492 275 492 c 0,19,20
 260 492 260 492 260 502 c 0,21,22
 260 517 260 517 272.5 539 c 128,-1,23
 285 561 285 561 312 586 c 128,-1,24
 339 611 339 611 375.5 632.5 c 128,-1,25
 412 654 412 654 468 668.5 c 128,-1,26
 524 683 524 683 587 683 c 0,27,28
 640 683 640 683 730 673 c 1,29,30
 822 661 822 661 872 661 c 0,31,32
 899 661 899 661 921 672 c 128,-1,33
 943 683 943 683 958 683 c 128,-1,34
 973 683 973 683 973 672 c 0,35,36
 973 662 973 662 959 648 c 0,37,38
 851 541 851 541 708 421 c 1,39,-1
 687 402 l 1,40,41
 687 400 687 400 701 400 c 0,42,43
 782 400 782 400 782 366 c 0,44,45
 782 353 782 353 763.5 337.5 c 128,-1,46
 745 322 745 322 715 321 c 0,47,48
 714.5 321.5 714.5 321.5 712.5 322.5 c 128,-1,49
 710.5 323.5 710.5 323.5 710 324 c 0,50,51
 708 328 708 328 706 330 c 0,52,53
 705 330 705 330 702.5 333 c 128,-1,54
 700 336 700 336 699 336 c 0,55,56
 684 341 684 341 611 343 c 1,57,58
 498 250 498 250 279 94 c 1,59,60
 294 96 294 96 324 96 c 0,61,62
 408 96 408 96 546 84 c 1,63,64
 678 74 678 74 730 74 c 0,65,66
 752 74 752 74 761.5 76.5 c 128,-1,67
 771 79 771 79 782 90 c 0,68,69
 805 114 805 114 817 152 c 0,70,71
 825 178 825 178 857 199 c 1,72,73
 892 220 892 220 913 220 c 0,74,75
 929 220 929 220 929 210 c 0,76,77
 929 191 929 191 909.5 158 c 128,-1,78
 890 125 890 125 856 89 c 128,-1,79
 822 53 822 53 765 26.5 c 128,-1,80
 708 0 708 0 644 0 c 0,81,82
 561 0 561 0 399 14 c 0,83,84
 304 22 304 22 238 22 c 0,85,86
 187 22 187 22 148 8 c 0,87,88
 128 0 128 0 116 0 c 0,89,90
 101 0 101 0 101 10 c 0,91,92
 101 28 101 28 156 65 c 0,93,94
 249 128 249 128 365 213.5 c 128,-1,95
 481 299 481 299 534 343 c 1,96,-1
 408 343 l 1,97,98
 398 346 398 346 398 357 c 0,99,100
 398 363 398 363 402.5 371.5 c 128,-1,101
 407 380 407 380 425 390.5 c 128,-1,102
 443 401 443 401 470 401 c 2,0,-1
EndSplineSet
EndChar

StartChar: lparenBigg
Encoding: 0 40 26
Width: 269
VWidth: 1069
Flags: W
VStem: 81 34<59.176 444.997> 245 15<-246.094 -244 744 746.094>
LayerCount: 2
Fore
SplineSet
245 -249 m 0,0,1
 81 -82 81 -82 81 250 c 128,-1,2
 81 582 81 582 245 749 c 0,3,4
 245 750 245 750 247 750 c 2,5,-1
 257 750 l 2,6,7
 260 750 260 750 260 746 c 2,8,-1
 260 745 l 1,9,-1
 259 744 l 1,10,11
 115 579 115 579 115 250 c 0,12,13
 115 -80 115 -80 259 -244 c 1,14,-1
 260 -245 l 1,15,-1
 260 -246 l 2,16,17
 260 -250 260 -250 257 -250 c 2,18,-1
 247 -250 l 2,19,20
 245 -250 245 -250 245 -249 c 0,0,1
EndSplineSet
EndChar

StartChar: rparenBigg
Encoding: 1 41 27
Width: 269
VWidth: 1069
Flags: W
VStem: 156 34<59.3001 445.129>
LayerCount: 2
Fore
SplineSet
14 -250 m 2,0,1
 11 -250 11 -250 11 -246 c 0,2,3
 11 -245 11 -245 12 -244 c 0,4,5
 156 -79 156 -79 156 250 c 0,6,7
 156 580 156 580 12 744 c 0,8,9
 11 745 11 745 11 746 c 0,10,11
 11 750 11 750 14 750 c 2,12,-1
 24 750 l 2,13,14
 25 750 25 750 26 749 c 0,15,16
 190 582 190 582 190 250 c 128,-1,17
 190 -82 190 -82 26 -249 c 0,18,19
 25 -250 25 -250 24 -250 c 2,20,-1
 14 -250 l 2,0,1
EndSplineSet
EndChar

StartChar: lbrackBigg
Encoding: 2 91 28
Width: 198
VWidth: 1069
Flags: W
HStem: -250 23<116 197> 727 23<116 197>
VStem: 93 104<-250 -227 727 750> 93 23<-227 727>
LayerCount: 2
Fore
SplineSet
93 -250 m 5,0,-1
 93 750 l 1,1,-1
 197 750 l 1,2,-1
 197 727 l 1,3,-1
 116 727 l 1,4,-1
 116 -227 l 1,5,-1
 197 -227 l 1,6,-1
 197 -250 l 1,7,-1
 93 -250 l 5,0,-1
EndSplineSet
EndChar

StartChar: rbrackBigg
Encoding: 3 93 29
Width: 198
VWidth: 1069
Flags: W
HStem: -250 23<3 84> 727 23<3 84>
VStem: 3 104<-250 -227 727 750> 84 23<-227 727>
LayerCount: 2
Fore
SplineSet
3 -250 m 1,0,-1
 3 -227 l 1,1,-1
 84 -227 l 1,2,-1
 84 727 l 1,3,-1
 3 727 l 1,4,-1
 3 750 l 1,5,-1
 107 750 l 1,6,-1
 107 -250 l 1,7,-1
 3 -250 l 1,0,-1
EndSplineSet
EndChar

StartChar: lbraceBigg
Encoding: 4 123 30
Width: 274
VWidth: 1069
Flags: W
HStem: 243 15<50.9531 60.7799>
VStem: 121 34<-182.845 185.517 314.913 682.415>
LayerCount: 2
Fore
SplineSet
142 -192 m 0,0,1
 121 -160 121 -160 121 -124 c 2,2,-1
 121 122 l 2,3,4
 121 159 121 159 102 191.5 c 128,-1,5
 83 224 83 224 51 243 c 0,6,7
 49 243 49 243 49 245 c 2,8,-1
 49 255 l 2,9,10
 49 258 49 258 51 258 c 0,11,12
 83 277 83 277 102 309 c 128,-1,13
 121 341 121 341 121 378 c 2,14,-1
 121 624 l 2,15,16
 121 660 121 660 142 692 c 0,17,18
 161 719 161 719 186 735 c 0,19,20
 207 749 207 749 214 750 c 2,21,-1
 223 750 l 2,22,23
 226 750 226 750 226 747 c 2,24,-1
 226 737 l 2,25,26
 226 735 226 735 225 734 c 0,27,28
 194 717 194 717 174.5 687.5 c 128,-1,29
 155 658 155 658 155 623 c 2,30,-1
 155 377 l 2,31,32
 155 337 155 337 131 303.5 c 128,-1,33
 107 270 107 270 70 250 c 1,34,35
 107 231 107 231 131 197.5 c 128,-1,36
 155 164 155 164 155 124 c 2,37,-1
 155 -123 l 2,38,39
 155 -158 155 -158 174.5 -188 c 128,-1,40
 194 -218 194 -218 225 -235 c 0,41,42
 226 -235 226 -235 226 -237 c 2,43,-1
 226 -247 l 2,44,45
 226 -250 226 -250 223 -250 c 2,46,-1
 214 -250 l 2,47,48
 207 -249 207 -249 186 -235 c 0,49,50
 161 -219 161 -219 142 -192 c 0,0,1
EndSplineSet
EndChar

StartChar: rbraceBigg
Encoding: 5 125 31
Width: 274
VWidth: 1069
Flags: W
HStem: 243 15<215.22 225.046>
VStem: 121 34<-182.845 185.517 314.913 682.415>
LayerCount: 2
Fore
SplineSet
49 -247 m 2,0,-1
 49 -237 l 2,1,2
 49 -235 49 -235 51 -235 c 0,3,4
 82 -218 82 -218 101.5 -188 c 128,-1,5
 121 -158 121 -158 121 -123 c 2,6,-1
 121 124 l 2,7,8
 121 164 121 164 145 197.5 c 128,-1,9
 169 231 169 231 206 250 c 1,10,11
 169 270 169 270 145 303.5 c 128,-1,12
 121 337 121 337 121 377 c 2,13,-1
 121 623 l 2,14,15
 121 658 121 658 101.5 687.5 c 128,-1,16
 82 717 82 717 51 734 c 0,17,18
 49 736 49 736 49 737 c 2,19,-1
 49 747 l 2,20,21
 49 750 49 750 53 750 c 2,22,-1
 62 750 l 2,23,24
 68 749 68 749 89 735 c 0,25,26
 116 718 116 718 134 692 c 0,27,28
 155 660 155 660 155 624 c 2,29,-1
 155 378 l 2,30,31
 155 341 155 341 174 309 c 128,-1,32
 193 277 193 277 225 258 c 0,33,34
 226 258 226 258 226 255 c 2,35,-1
 226 245 l 2,36,37
 226 243 226 243 225 243 c 0,38,39
 193 224 193 224 174 191.5 c 128,-1,40
 155 159 155 159 155 122 c 2,41,-1
 155 -124 l 2,42,43
 155 -160 155 -160 134 -192 c 0,44,45
 116 -218 116 -218 89 -235 c 0,46,47
 68 -249 68 -249 62 -250 c 2,48,-1
 53 -250 l 2,49,50
 49 -250 49 -250 49 -247 c 2,0,-1
EndSplineSet
EndChar

StartChar: slashBigg
Encoding: 6 47 32
Width: 436
VWidth: 1069
Flags: W
VStem: 19 20<-249.952 -243> 398 20<743 749.952>
LayerCount: 2
Fore
SplineSet
19 -240 m 0,0,1
 19 -239 19 -239 20 -237 c 2,2,-1
 398 743 l 2,3,4
 400 748 400 748 408 750 c 0,5,6
 417 749 417 749 418 740 c 2,7,8
 418 737 l 1,9,-1
 39 -243 l 2,10,11
 37 -248 37 -248 29 -250 c 0,12,13
 20 -249 20 -249 19 -240 c 0,0,1
EndSplineSet
EndChar

StartChar: backslashBigg
Encoding: 7 92 33
Width: 436
VWidth: 1069
Flags: W
VStem: 19 20<744 749.952> 399 19<-249.9 -244>
LayerCount: 2
Fore
SplineSet
399 -244 m 2,0,-1
 20 737 l 2,1,2
 19 739 19 739 19 740 c 0,3,4
 20 749 20 749 29 750 c 0,5,6
 37 748 37 748 39 744 c 2,7,-1
 418 -237 l 1,8,9
 418 -240 l 2,10,11
 417 -249 417 -249 408 -250 c 0,12,13
 401 -248 401 -248 399 -244 c 2,0,-1
EndSplineSet
EndChar

StartChar: lceilBigg
Encoding: 8 8968 34
Width: 217
VWidth: 1069
Flags: W
HStem: 727 23<116 216>
VStem: 93 23<-250 727>
LayerCount: 2
Fore
SplineSet
93 -250 m 1,0,-1
 93 750 l 1,1,-1
 216 750 l 1,2,-1
 216 727 l 1,3,-1
 116 727 l 1,4,-1
 116 -250 l 1,5,-1
 93 -250 l 1,0,-1
EndSplineSet
EndChar

StartChar: rceilBigg
Encoding: 9 8969 35
Width: 217
VWidth: 1069
Flags: W
HStem: 727 23<3 103>
VStem: 103 23<-250 727>
LayerCount: 2
Fore
SplineSet
103 -250 m 1,0,-1
 103 727 l 1,1,-1
 3 727 l 1,2,-1
 3 750 l 1,3,-1
 126 750 l 1,4,-1
 126 -250 l 1,5,-1
 103 -250 l 1,0,-1
EndSplineSet
EndChar

StartChar: lfloorBigg
Encoding: 10 8970 36
Width: 217
VWidth: 1069
Flags: W
HStem: -250 23<116 216>
VStem: 93 23<-227 750>
LayerCount: 2
Fore
SplineSet
93 -250 m 1,0,-1
 93 750 l 1,1,-1
 116 750 l 1,2,-1
 116 -227 l 1,3,-1
 216 -227 l 1,4,-1
 216 -250 l 1,5,-1
 93 -250 l 1,0,-1
EndSplineSet
EndChar

StartChar: rfloorBigg
Encoding: 11 8971 37
Width: 217
VWidth: 1069
Flags: W
HStem: -250 23<3 103>
VStem: 103 23<-227 750>
LayerCount: 2
Fore
SplineSet
3 -250 m 1,0,-1
 3 -227 l 1,1,-1
 103 -227 l 1,2,-1
 103 750 l 1,3,-1
 126 750 l 1,4,-1
 126 -250 l 1,5,-1
 3 -250 l 1,0,-1
EndSplineSet
EndChar

StartChar: langleBigg
Encoding: 12 12296 38
Width: 274
VWidth: 1069
Flags: W
VStem: 217 22<-249.952 -243 743 749.952>
LayerCount: 2
Fore
SplineSet
217 -243 m 2,0,-1
 48 246 l 1,1,2
 48 249 l 1,3,-1
 48 251 l 1,4,5
 48 254 l 1,6,-1
 217 743 l 2,7,8
 220 749 220 749 227 750 c 2,9,-1
 229 750 l 2,10,11
 238 749 238 749 239 740 c 2,12,-1
 239 738 l 1,13,14
 239 735 l 1,15,-1
 71 250 l 1,16,-1
 239 -235 l 1,17,18
 239 -238 l 1,19,-1
 239 -240 l 2,20,21
 238 -249 238 -249 229 -250 c 2,22,-1
 227 -250 l 2,23,24
 220 -249 220 -249 217 -243 c 2,0,-1
EndSplineSet
EndChar

StartChar: rangleBigg
Encoding: 13 12297 39
Width: 274
VWidth: 1069
Flags: W
VStem: 36 22<-249.952 -243 743 749.952>
LayerCount: 2
Fore
SplineSet
47 -250 m 1,0,1
 37 -248 37 -248 36 -240 c 2,2,-1
 36 -238 l 2,3,4
 36 -236 36 -236 37 -235 c 2,5,-1
 204 250 l 1,6,-1
 37 734 l 2,7,8
 36 736 36 736 36 738 c 2,9,-1
 36 740 l 2,10,11
 37 748 37 748 47 750 c 2,12,-1
 49 750 l 2,13,14
 55 749 55 749 58 743 c 2,15,-1
 227 254 l 2,16,17
 228 252 228 252 228 251 c 2,18,-1
 228 249 l 1,19,20
 228 247 l 1,21,-1
 58 -243 l 2,22,23
 55 -249 55 -249 49 -250 c 2,24,-1
 47 -250 l 1,0,1
EndSplineSet
EndChar
